<!-- Generated by IcoMoon.io -->
<svg version="1.1" xmlns="http://www.w3.org/2000/svg" width="362" height="1024" viewBox="0 0 362 1024">
<title>logoLogin</title>
<path fill="#4680ff" d="M68.686 299.806l-16.006 170.281 149.335-170.281z"></path>
<path fill="#4680ff" d="M295.476 331.245l-255.855 277.103-13.424 138.556 282.632-276.81z"></path>
<path fill="#4680ff" d="M322.222 608.635l-309.123 275.936-13.099 139.429 335.32-277.103z"></path>
<path fill="#4680ff" d="M348.705 884.864l-210.737 139.136h223.835z"></path>
<path fill="#4680ff" d="M300.965 234.607h-239.841l-8.444 32.568h256.435z"></path>
<path fill="#4680ff" d="M244.822 42.497c-10.643-25.162-35.123-42.497-63.651-42.497-0.033 0-0.066 0-0.099 0h0.005c-24.067 0.089-45.256 12.327-57.765 30.897l-0.158 0.249c14.846 10.191 54.722 11.351 54.722 11.351h-108.601l8.15 32.568h207.242l8.15-32.568z"></path>
</svg>
